<svg xmlns="http://www.w3.org/2000/svg" viewBox="0 0 1200 630" width="1200" height="630">
  <defs>
    <!-- Background Gradient -->
    <linearGradient id="bgGrad" x1="0%" y1="0%" x2="100%" y2="100%">
      <stop offset="0%" stop-color="#060a14"/>
      <stop offset="45%" stop-color="#0c1222"/>
      <stop offset="100%" stop-color="#141f38"/>
    </linearGradient>

    <!-- Glow Gradients -->
    <radialGradient id="cyanGlow" cx="50%" cy="50%" r="50%">
      <stop offset="0%" stop-color="#38bdf8" stop-opacity="0.28"/>
      <stop offset="60%" stop-color="#38bdf8" stop-opacity="0.08"/>
      <stop offset="100%" stop-color="#38bdf8" stop-opacity="0"/>
    </radialGradient>
    <radialGradient id="amberGlow" cx="50%" cy="50%" r="50%">
      <stop offset="0%" stop-color="#fbbf24" stop-opacity="0.25"/>
      <stop offset="60%" stop-color="#fbbf24" stop-opacity="0.06"/>
      <stop offset="100%" stop-color="#fbbf24" stop-opacity="0"/>
    </radialGradient>
    <radialGradient id="purpleGlow" cx="50%" cy="50%" r="50%">
      <stop offset="0%" stop-color="#818cf8" stop-opacity="0.22"/>
      <stop offset="100%" stop-color="#818cf8" stop-opacity="0"/>
    </radialGradient>
    <radialGradient id="emeraldGlow" cx="50%" cy="50%" r="50%">
      <stop offset="0%" stop-color="#34d399" stop-opacity="0.18"/>
      <stop offset="100%" stop-color="#34d399" stop-opacity="0"/>
    </radialGradient>

    <!-- Card Background Gradient -->
    <linearGradient id="cardGrad" x1="0%" y1="0%" x2="100%" y2="100%">
      <stop offset="0%" stop-color="#1e293b" stop-opacity="0.92"/>
      <stop offset="100%" stop-color="#0f172a" stop-opacity="0.96"/>
    </linearGradient>

    <!-- Clock Face Gradient -->
    <radialGradient id="clockDial" cx="50%" cy="50%" r="50%">
      <stop offset="0%" stop-color="#19243a"/>
      <stop offset="75%" stop-color="#121a2d"/>
      <stop offset="100%" stop-color="#0c1322"/>
    </radialGradient>

    <!-- Tempo Text Gradient -->
    <linearGradient id="tempoGrad" x1="0%" y1="0%" x2="100%" y2="0%">
      <stop offset="0%" stop-color="#38bdf8"/>
      <stop offset="50%" stop-color="#60a5fa"/>
      <stop offset="100%" stop-color="#38bdf8"/>
    </linearGradient>

    <linearGradient id="goldGrad" x1="0%" y1="0%" x2="100%" y2="100%">
      <stop offset="0%" stop-color="#fde68a"/>
      <stop offset="50%" stop-color="#fbbf24"/>
      <stop offset="100%" stop-color="#d97706"/>
    </linearGradient>

    <!-- Drop Shadows -->
    <filter id="heroShadow" x="-30%" y="-30%" width="160%" height="160%">
      <feDropShadow dx="0" dy="16" stdDeviation="24" flood-color="#000000" flood-opacity="0.6"/>
    </filter>
    <filter id="cardShadow" x="-30%" y="-30%" width="160%" height="160%">
      <feDropShadow dx="0" dy="8" stdDeviation="12" flood-color="#000000" flood-opacity="0.45"/>
    </filter>
    <filter id="handShadow" x="-40%" y="-40%" width="180%" height="180%">
      <feDropShadow dx="2" dy="4" stdDeviation="4" flood-color="#000000" flood-opacity="0.5"/>
    </filter>
    <filter id="starGlow" x="-30%" y="-30%" width="160%" height="160%">
      <feDropShadow dx="0" dy="0" stdDeviation="8" flood-color="#fbbf24" flood-opacity="0.8"/>
    </filter>
  </defs>

  <!-- Background Base -->
  <rect width="1200" height="630" fill="url(#bgGrad)"/>

  <!-- Ambient Glowing Orbs -->
  <circle cx="920" cy="315" r="340" fill="url(#cyanGlow)"/>
  <circle cx="1090" cy="455" r="260" fill="url(#amberGlow)"/>
  <circle cx="200" cy="140" r="280" fill="url(#purpleGlow)"/>
  <circle cx="480" cy="500" r="220" fill="url(#emeraldGlow)"/>

  <!-- Background Subtle Grid -->
  <g opacity="0.035" stroke="#ffffff" stroke-width="1">
    <line x1="0" y1="157.5" x2="1200" y2="157.5"/>
    <line x1="0" y1="315" x2="1200" y2="315"/>
    <line x1="0" y1="472.5" x2="1200" y2="472.5"/>
    <line x1="300" y1="0" x2="300" y2="630"/>
    <line x1="600" y1="0" x2="600" y2="630"/>
    <line x1="900" y1="0" x2="900" y2="630"/>
  </g>

  <!-- Starfield Dust Particles -->
  <g fill="#ffffff" opacity="0.25">
    <circle cx="90" cy="90" r="1.5"/>
    <circle cx="340" cy="65" r="1"/>
    <circle cx="580" cy="120" r="1.5"/>
    <circle cx="160" cy="320" r="1"/>
    <circle cx="680" cy="280" r="1.5"/>
    <circle cx="720" cy="90" r="1"/>
    <circle cx="1100" cy="80" r="1.5"/>
    <circle cx="1140" cy="300" r="1"/>
    <circle cx="1080" cy="550" r="1.5"/>
    <circle cx="620" cy="550" r="1"/>
    <circle cx="70" cy="570" r="1.5"/>
  </g>

  <!-- Left Column: Branding, Title, Features -->
  <g transform="translate(64, 0)">
    <!-- Top Pill Badge -->
    <g transform="translate(0, 60)">
      <rect width="280" height="34" rx="17" fill="#38bdf8" fill-opacity="0.12" stroke="#38bdf8" stroke-width="1.5"/>
      <!-- Sparkle Icon -->
      <path d="M18 17L20 11L22 17L28 19L22 21L20 27L18 21L12 19Z" fill="#38bdf8"/>
      <text x="36" y="22" fill="#38bdf8" font-family="'Segoe UI', -apple-system, Roboto, Helvetica, Arial, sans-serif" font-size="12" font-weight="800" letter-spacing="1.2">MONTESSORI TIME LEARNING</text>
    </g>

    <!-- Brand Header (Logo Icon + Wordmark + Star) -->
    <g transform="translate(0, 160)">
      <!-- App Name -->
      <text x="0" y="0" fill="url(#tempoGrad)" font-family="'Segoe UI', -apple-system, Roboto, Helvetica, Arial, sans-serif" font-size="70" font-weight="900" letter-spacing="-1">Tempo</text>
      
      <!-- Sparkling Gold Star Accent -->
      <g transform="translate(255, -42)" filter="url(#starGlow)">
        <path d="M16 2.5L20 12.5L30.5 13.5L22.5 20.5L25 31L16 25.5L7 31L9.5 20.5L1.5 13.5L12 12.5Z" fill="url(#goldGrad)"/>
      </g>
    </g>

    <!-- Tagline -->
    <text x="0" y="216" fill="#f8fafc" font-family="'Segoe UI', -apple-system, Roboto, Helvetica, Arial, sans-serif" font-size="25" font-weight="800">
      Time-Telling Learning App for Kids
    </text>

    <!-- Subtitle Description -->
    <text x="0" y="254" fill="#94a3b8" font-family="'Segoe UI', -apple-system, Roboto, Helvetica, Arial, sans-serif" font-size="16" font-weight="400">
      <tspan x="0" dy="0">A playful, interactive web app &amp; PWA designed</tspan>
      <tspan x="0" dy="25">specifically for preschoolers and young learners.</tspan>
    </text>

    <!-- Feature Grid / Chips: Row 1 -->
    <g transform="translate(0, 330)">
      <!-- Chip 1: Analog & Digital -->
      <g transform="translate(0, 0)">
        <rect width="166" height="42" rx="12" fill="url(#cardGrad)" stroke="#38bdf8" stroke-width="1.5" stroke-opacity="0.6"/>
        <circle cx="24" cy="21" r="10" fill="#38bdf8" fill-opacity="0.18"/>
        <circle cx="24" cy="21" r="7" stroke="#38bdf8" stroke-width="1.6" fill="none"/>
        <path d="M24 17.5V21H27.5" stroke="#38bdf8" stroke-width="1.6" stroke-linecap="round"/>
        <text x="43" y="26" fill="#e2e8f0" font-family="'Segoe UI', -apple-system, Roboto, Helvetica, Arial, sans-serif" font-size="13.5" font-weight="700">Analog &amp; Digital</text>
      </g>

      <!-- Chip 2: 5 Game Modes -->
      <g transform="translate(176, 0)">
        <rect width="166" height="42" rx="12" fill="url(#cardGrad)" stroke="#2dd4bf" stroke-width="1.5" stroke-opacity="0.6"/>
        <circle cx="24" cy="21" r="10" fill="#2dd4bf" fill-opacity="0.18"/>
        <!-- Gamepad icon -->
        <rect x="18" y="16" width="12" height="10" rx="3" stroke="#2dd4bf" stroke-width="1.5" fill="none"/>
        <path d="M21 21H23M22 20V22M26 21H27" stroke="#2dd4bf" stroke-width="1.5" stroke-linecap="round"/>
        <text x="43" y="26" fill="#e2e8f0" font-family="'Segoe UI', -apple-system, Roboto, Helvetica, Arial, sans-serif" font-size="13.5" font-weight="700">5 Game Modes</text>
      </g>

      <!-- Chip 3: Star Rewards -->
      <g transform="translate(352, 0)">
        <rect width="156" height="42" rx="12" fill="url(#cardGrad)" stroke="#fbbf24" stroke-width="1.5" stroke-opacity="0.6"/>
        <circle cx="24" cy="21" r="10" fill="#fbbf24" fill-opacity="0.18"/>
        <path d="M24 14.5L25.8 18.2L29.8 18.8L26.9 21.6L27.6 25.5L24 23.6L20.4 25.5L21.1 21.6L18.2 18.8L22.2 18.2Z" fill="#fbbf24"/>
        <text x="43" y="26" fill="#e2e8f0" font-family="'Segoe UI', -apple-system, Roboto, Helvetica, Arial, sans-serif" font-size="13.5" font-weight="700">Star Rewards</text>
      </g>
    </g>

    <!-- Feature Grid / Chips: Row 2 -->
    <g transform="translate(0, 382)">
      <!-- Chip 4: Spoken Audio -->
      <g transform="translate(0, 0)">
        <rect width="166" height="42" rx="12" fill="url(#cardGrad)" stroke="#fb7185" stroke-width="1.5" stroke-opacity="0.6"/>
        <circle cx="24" cy="21" r="10" fill="#fb7185" fill-opacity="0.18"/>
        <path d="M19 18H21L24 15V27L21 24H19V18Z" fill="#fb7185"/>
        <path d="M26 18C27 19 27 23 26 24" stroke="#fb7185" stroke-width="1.6" stroke-linecap="round" fill="none"/>
        <text x="43" y="26" fill="#e2e8f0" font-family="'Segoe UI', -apple-system, Roboto, Helvetica, Arial, sans-serif" font-size="13.5" font-weight="700">Spoken Audio</text>
      </g>

      <!-- Chip 5: Bilingual EN / FR -->
      <g transform="translate(176, 0)">
        <rect width="166" height="42" rx="12" fill="url(#cardGrad)" stroke="#a78bfa" stroke-width="1.5" stroke-opacity="0.6"/>
        <circle cx="24" cy="21" r="10" fill="#a78bfa" fill-opacity="0.18"/>
        <!-- Globe icon -->
        <circle cx="24" cy="21" r="6" stroke="#a78bfa" stroke-width="1.5" fill="none"/>
        <ellipse cx="24" cy="21" rx="3" ry="6" stroke="#a78bfa" stroke-width="1.2" fill="none"/>
        <line x1="18" y1="21" x2="30" y2="21" stroke="#a78bfa" stroke-width="1.2"/>
        <text x="43" y="26" fill="#e2e8f0" font-family="'Segoe UI', -apple-system, Roboto, Helvetica, Arial, sans-serif" font-size="13.5" font-weight="700">Bilingual EN / FR</text>
      </g>

      <!-- Chip 6: Offline PWA -->
      <g transform="translate(352, 0)">
        <rect width="156" height="42" rx="12" fill="url(#cardGrad)" stroke="#38bdf8" stroke-width="1.5" stroke-opacity="0.6"/>
        <circle cx="24" cy="21" r="10" fill="#38bdf8" fill-opacity="0.18"/>
        <path d="M20 20L24 16L28 20M24 16V25M19 26H29" stroke="#38bdf8" stroke-width="1.8" stroke-linecap="round" stroke-linejoin="round"/>
        <text x="43" y="26" fill="#e2e8f0" font-family="'Segoe UI', -apple-system, Roboto, Helvetica, Arial, sans-serif" font-size="13.5" font-weight="700">Offline PWA</text>
      </g>
    </g>

    <!-- Bottom Footer Tagline -->
    <g transform="translate(0, 465)">
      <path d="M6 10L7 6L8 10L12 11L8 12L7 16L6 12L2 11Z" fill="#38bdf8" opacity="0.8"/>
      <text x="20" y="15" fill="#64748b" font-family="'Segoe UI', -apple-system, Roboto, Helvetica, Arial, sans-serif" font-size="13" font-weight="600">
        Open Source · Montessori Method · No Ads · Privacy First
      </text>
    </g>
  </g>

  <!-- Right Column: Hero Montessori Analog Clock -->
  <g filter="url(#heroShadow)">
    <!-- Outer Decorative Glow Ring -->
    <circle cx="920" cy="315" r="189" fill="none" stroke="#38bdf8" stroke-width="2" stroke-opacity="0.3" stroke-dasharray="6 8"/>

    <!-- Clock Outer Rim Bezel -->
    <circle cx="920" cy="315" r="175" fill="url(#clockDial)" stroke="#38bdf8" stroke-width="9"/>

    <!-- Inner Track Ring -->
    <circle cx="920" cy="315" r="154.0" fill="none" stroke="#334155" stroke-width="1.8" stroke-dasharray="3 5"/>

    <!-- 60 Minute & 12 Hour Ticks -->
    <line x1="920.0" y1="164.5" x2="920.0" y2="150.5" stroke="#38bdf8" stroke-width="3.5" stroke-linecap="round"/>
    <line x1="936.8" y1="154.9" x2="937.2" y2="151.4" stroke="#334155" stroke-width="1.2" stroke-linecap="round"/>
    <line x1="953.5" y1="157.5" x2="954.2" y2="154.1" stroke="#334155" stroke-width="1.2" stroke-linecap="round"/>
    <line x1="969.8" y1="161.9" x2="970.8" y2="158.6" stroke="#334155" stroke-width="1.2" stroke-linecap="round"/>
    <line x1="985.5" y1="167.9" x2="986.9" y2="164.7" stroke="#334155" stroke-width="1.2" stroke-linecap="round"/>
    <line x1="997.0" y1="181.6" x2="1002.3" y2="172.5" stroke="#60a5fa" stroke-width="2.2" stroke-linecap="round"/>
    <line x1="1014.6" y1="184.7" x2="1016.7" y2="181.9" stroke="#334155" stroke-width="1.2" stroke-linecap="round"/>
    <line x1="1027.7" y1="195.4" x2="1030.1" y2="192.8" stroke="#334155" stroke-width="1.2" stroke-linecap="round"/>
    <line x1="1039.6" y1="207.3" x2="1042.2" y2="204.9" stroke="#334155" stroke-width="1.2" stroke-linecap="round"/>
    <line x1="1050.3" y1="220.4" x2="1053.1" y2="218.3" stroke="#334155" stroke-width="1.2" stroke-linecap="round"/>
    <line x1="1053.4" y1="238.0" x2="1062.5" y2="232.8" stroke="#60a5fa" stroke-width="2.2" stroke-linecap="round"/>
    <line x1="1067.1" y1="249.5" x2="1070.3" y2="248.1" stroke="#334155" stroke-width="1.2" stroke-linecap="round"/>
    <line x1="1073.1" y1="265.2" x2="1076.4" y2="264.2" stroke="#334155" stroke-width="1.2" stroke-linecap="round"/>
    <line x1="1077.5" y1="281.5" x2="1080.9" y2="280.8" stroke="#334155" stroke-width="1.2" stroke-linecap="round"/>
    <line x1="1080.1" y1="298.2" x2="1083.6" y2="297.8" stroke="#334155" stroke-width="1.2" stroke-linecap="round"/>
    <line x1="1070.5" y1="315.0" x2="1084.5" y2="315.0" stroke="#38bdf8" stroke-width="3.5" stroke-linecap="round"/>
    <line x1="1080.1" y1="331.8" x2="1083.6" y2="332.2" stroke="#334155" stroke-width="1.2" stroke-linecap="round"/>
    <line x1="1077.5" y1="348.5" x2="1080.9" y2="349.2" stroke="#334155" stroke-width="1.2" stroke-linecap="round"/>
    <line x1="1073.1" y1="364.8" x2="1076.4" y2="365.8" stroke="#334155" stroke-width="1.2" stroke-linecap="round"/>
    <line x1="1067.1" y1="380.5" x2="1070.3" y2="381.9" stroke="#334155" stroke-width="1.2" stroke-linecap="round"/>
    <line x1="1053.4" y1="392.0" x2="1062.5" y2="397.3" stroke="#60a5fa" stroke-width="2.2" stroke-linecap="round"/>
    <line x1="1050.3" y1="409.6" x2="1053.1" y2="411.7" stroke="#334155" stroke-width="1.2" stroke-linecap="round"/>
    <line x1="1039.6" y1="422.7" x2="1042.2" y2="425.1" stroke="#334155" stroke-width="1.2" stroke-linecap="round"/>
    <line x1="1027.7" y1="434.6" x2="1030.1" y2="437.2" stroke="#334155" stroke-width="1.2" stroke-linecap="round"/>
    <line x1="1014.6" y1="445.3" x2="1016.7" y2="448.1" stroke="#334155" stroke-width="1.2" stroke-linecap="round"/>
    <line x1="997.0" y1="448.4" x2="1002.3" y2="457.5" stroke="#60a5fa" stroke-width="2.2" stroke-linecap="round"/>
    <line x1="985.5" y1="462.1" x2="986.9" y2="465.3" stroke="#334155" stroke-width="1.2" stroke-linecap="round"/>
    <line x1="969.8" y1="468.1" x2="970.8" y2="471.4" stroke="#334155" stroke-width="1.2" stroke-linecap="round"/>
    <line x1="953.5" y1="472.5" x2="954.2" y2="475.9" stroke="#334155" stroke-width="1.2" stroke-linecap="round"/>
    <line x1="936.8" y1="475.1" x2="937.2" y2="478.6" stroke="#334155" stroke-width="1.2" stroke-linecap="round"/>
    <line x1="920.0" y1="465.5" x2="920.0" y2="479.5" stroke="#38bdf8" stroke-width="3.5" stroke-linecap="round"/>
    <line x1="903.2" y1="475.1" x2="902.8" y2="478.6" stroke="#334155" stroke-width="1.2" stroke-linecap="round"/>
    <line x1="886.5" y1="472.5" x2="885.8" y2="475.9" stroke="#334155" stroke-width="1.2" stroke-linecap="round"/>
    <line x1="870.2" y1="468.1" x2="869.2" y2="471.4" stroke="#334155" stroke-width="1.2" stroke-linecap="round"/>
    <line x1="854.5" y1="462.1" x2="853.1" y2="465.3" stroke="#334155" stroke-width="1.2" stroke-linecap="round"/>
    <line x1="843.0" y1="448.4" x2="837.8" y2="457.5" stroke="#60a5fa" stroke-width="2.2" stroke-linecap="round"/>
    <line x1="825.4" y1="445.3" x2="823.3" y2="448.1" stroke="#334155" stroke-width="1.2" stroke-linecap="round"/>
    <line x1="812.3" y1="434.6" x2="809.9" y2="437.2" stroke="#334155" stroke-width="1.2" stroke-linecap="round"/>
    <line x1="800.4" y1="422.7" x2="797.8" y2="425.1" stroke="#334155" stroke-width="1.2" stroke-linecap="round"/>
    <line x1="789.7" y1="409.6" x2="786.9" y2="411.7" stroke="#334155" stroke-width="1.2" stroke-linecap="round"/>
    <line x1="786.6" y1="392.0" x2="777.5" y2="397.3" stroke="#60a5fa" stroke-width="2.2" stroke-linecap="round"/>
    <line x1="772.9" y1="380.5" x2="769.7" y2="381.9" stroke="#334155" stroke-width="1.2" stroke-linecap="round"/>
    <line x1="766.9" y1="364.8" x2="763.6" y2="365.8" stroke="#334155" stroke-width="1.2" stroke-linecap="round"/>
    <line x1="762.5" y1="348.5" x2="759.1" y2="349.2" stroke="#334155" stroke-width="1.2" stroke-linecap="round"/>
    <line x1="759.9" y1="331.8" x2="756.4" y2="332.2" stroke="#334155" stroke-width="1.2" stroke-linecap="round"/>
    <line x1="769.5" y1="315.0" x2="755.5" y2="315.0" stroke="#38bdf8" stroke-width="3.5" stroke-linecap="round"/>
    <line x1="759.9" y1="298.2" x2="756.4" y2="297.8" stroke="#334155" stroke-width="1.2" stroke-linecap="round"/>
    <line x1="762.5" y1="281.5" x2="759.1" y2="280.8" stroke="#334155" stroke-width="1.2" stroke-linecap="round"/>
    <line x1="766.9" y1="265.2" x2="763.6" y2="264.2" stroke="#334155" stroke-width="1.2" stroke-linecap="round"/>
    <line x1="772.9" y1="249.5" x2="769.7" y2="248.1" stroke="#334155" stroke-width="1.2" stroke-linecap="round"/>
    <line x1="786.6" y1="238.0" x2="777.5" y2="232.8" stroke="#60a5fa" stroke-width="2.2" stroke-linecap="round"/>
    <line x1="789.7" y1="220.4" x2="786.9" y2="218.3" stroke="#334155" stroke-width="1.2" stroke-linecap="round"/>
    <line x1="800.4" y1="207.3" x2="797.8" y2="204.9" stroke="#334155" stroke-width="1.2" stroke-linecap="round"/>
    <line x1="812.3" y1="195.4" x2="809.9" y2="192.8" stroke="#334155" stroke-width="1.2" stroke-linecap="round"/>
    <line x1="825.4" y1="184.7" x2="823.3" y2="181.9" stroke="#334155" stroke-width="1.2" stroke-linecap="round"/>
    <line x1="843.0" y1="181.6" x2="837.7" y2="172.5" stroke="#60a5fa" stroke-width="2.2" stroke-linecap="round"/>
    <line x1="854.5" y1="167.9" x2="853.1" y2="164.7" stroke="#334155" stroke-width="1.2" stroke-linecap="round"/>
    <line x1="870.2" y1="161.9" x2="869.2" y2="158.6" stroke="#334155" stroke-width="1.2" stroke-linecap="round"/>
    <line x1="886.5" y1="157.5" x2="885.8" y2="154.1" stroke="#334155" stroke-width="1.2" stroke-linecap="round"/>
    <line x1="903.2" y1="154.9" x2="902.8" y2="151.4" stroke="#334155" stroke-width="1.2" stroke-linecap="round"/>

    <!-- Hour Numerals 1 to 12 -->
    <text x="920.0" y="194.3" text-anchor="middle" dominant-baseline="central" fill="#f8fafc" font-family="'Segoe UI', -apple-system, Roboto, Helvetica, Arial, sans-serif" font-size="19" font-weight="800">12</text>
    <text x="983.9" y="211.4" text-anchor="middle" dominant-baseline="central" fill="#f8fafc" font-family="'Segoe UI', -apple-system, Roboto, Helvetica, Arial, sans-serif" font-size="19" font-weight="800">1</text>
    <text x="1030.6" y="258.1" text-anchor="middle" dominant-baseline="central" fill="#f8fafc" font-family="'Segoe UI', -apple-system, Roboto, Helvetica, Arial, sans-serif" font-size="19" font-weight="800">2</text>
    <text x="1047.8" y="322.0" text-anchor="middle" dominant-baseline="central" fill="#f8fafc" font-family="'Segoe UI', -apple-system, Roboto, Helvetica, Arial, sans-serif" font-size="19" font-weight="800">3</text>
    <text x="1030.6" y="385.9" text-anchor="middle" dominant-baseline="central" fill="#f8fafc" font-family="'Segoe UI', -apple-system, Roboto, Helvetica, Arial, sans-serif" font-size="19" font-weight="800">4</text>
    <text x="983.9" y="432.6" text-anchor="middle" dominant-baseline="central" fill="#f8fafc" font-family="'Segoe UI', -apple-system, Roboto, Helvetica, Arial, sans-serif" font-size="19" font-weight="800">5</text>
    <text x="920.0" y="449.8" text-anchor="middle" dominant-baseline="central" fill="#f8fafc" font-family="'Segoe UI', -apple-system, Roboto, Helvetica, Arial, sans-serif" font-size="19" font-weight="800">6</text>
    <text x="856.1" y="432.6" text-anchor="middle" dominant-baseline="central" fill="#f8fafc" font-family="'Segoe UI', -apple-system, Roboto, Helvetica, Arial, sans-serif" font-size="19" font-weight="800">7</text>
    <text x="809.4" y="385.9" text-anchor="middle" dominant-baseline="central" fill="#f8fafc" font-family="'Segoe UI', -apple-system, Roboto, Helvetica, Arial, sans-serif" font-size="19" font-weight="800">8</text>
    <text x="792.3" y="322.0" text-anchor="middle" dominant-baseline="central" fill="#f8fafc" font-family="'Segoe UI', -apple-system, Roboto, Helvetica, Arial, sans-serif" font-size="19" font-weight="800">9</text>
    <text x="809.4" y="258.1" text-anchor="middle" dominant-baseline="central" fill="#f8fafc" font-family="'Segoe UI', -apple-system, Roboto, Helvetica, Arial, sans-serif" font-size="19" font-weight="800">10</text>
    <text x="856.1" y="211.4" text-anchor="middle" dominant-baseline="central" fill="#f8fafc" font-family="'Segoe UI', -apple-system, Roboto, Helvetica, Arial, sans-serif" font-size="19" font-weight="800">11</text>

    <!-- Clock Hands (with hand drop shadows) -->
    <g filter="url(#handShadow)">
      <!-- Hour Hand (Sky Blue, pointing to 10) -->
      <line x1="920" y1="315" x2="845.5" y2="262.8" stroke="#38bdf8" stroke-width="12" stroke-linecap="round"/>

      <!-- Minute Hand (Sunny Amber, pointing to 2) -->
      <line x1="920" y1="315" x2="1035.2" y2="248.5" stroke="#fbbf24" stroke-width="8" stroke-linecap="round"/>

      <!-- Center Hub & Cap -->
      <circle cx="920" cy="315" r="12" fill="#38bdf8"/>
      <circle cx="920" cy="315" r="6" fill="#0c1222"/>
      <circle cx="920" cy="315" r="3" fill="#fbbf24"/>
    </g>
  </g>

  <!-- Floating Companion Badges (Framed cleanly around the clock) -->

  <!-- 1. Floating Streak Pill (Top Right) -->
  <g transform="translate(970, 112)" filter="url(#cardShadow)">
    <rect width="170" height="50" rx="15" fill="#0f172a" stroke="#fbbf24" stroke-width="2"/>
    <circle cx="25" cy="25" r="13" fill="#fbbf24" fill-opacity="0.2"/>
    <!-- Trophy / Flame icon -->
    <path d="M20 18H30V22C30 24.8 27.8 27 25 27C22.2 27 20 24.8 20 22V18Z" fill="#fbbf24"/>
    <path d="M18 19C17 19 16 20 16 21C16 22.5 17.5 23 18.5 23" stroke="#fbbf24" stroke-width="1.4" stroke-linecap="round" fill="none"/>
    <path d="M32 19C33 19 34 20 34 21C34 22.5 32.5 23 31.5 23" stroke="#fbbf24" stroke-width="1.4" stroke-linecap="round" fill="none"/>
    <path d="M23 27V30H27V27M21 30H29" stroke="#fbbf24" stroke-width="1.4" stroke-linecap="round"/>
    
    <text x="46" y="24" fill="#fbbf24" font-family="'Segoe UI', -apple-system, Roboto, Helvetica, Arial, sans-serif" font-size="13" font-weight="800">5-Day Streak!</text>
    <text x="46" y="39" fill="#94a3b8" font-family="'Segoe UI', -apple-system, Roboto, Helvetica, Arial, sans-serif" font-size="10.5" font-weight="600">Level 3 Master</text>
  </g>

  <!-- 2. Floating Game Mode Badge (Top Left) -->
  <g transform="translate(705, 120)" filter="url(#cardShadow)">
    <rect width="155" height="46" rx="14" fill="#0f172a" stroke="#2dd4bf" stroke-width="2"/>
    <circle cx="23" cy="23" r="11" fill="#2dd4bf" fill-opacity="0.2"/>
    <!-- Magnifying Glass / Clock read icon -->
    <circle cx="21" cy="21" r="5.5" stroke="#2dd4bf" stroke-width="1.6" fill="none"/>
    <line x1="25" y1="25" x2="29" y2="29" stroke="#2dd4bf" stroke-width="1.8" stroke-linecap="round"/>
    <text x="42" y="28" fill="#2dd4bf" font-family="'Segoe UI', -apple-system, Roboto, Helvetica, Arial, sans-serif" font-size="12.5" font-weight="800">Read the Clock</text>
  </g>

  <!-- 3. Floating Digital Time Display (Bottom Left) -->
  <g transform="translate(745, 455)" filter="url(#cardShadow)">
    <rect width="150" height="56" rx="16" fill="#0f172a" stroke="#38bdf8" stroke-width="2.5"/>
    <!-- Live Green Pulse Dot -->
    <circle cx="26" cy="28" r="4.5" fill="#34d399"/>
    <circle cx="26" cy="28" r="8" fill="#34d399" fill-opacity="0.3"/>
    <text x="46" y="35" fill="#38bdf8" font-family="'Segoe UI', -apple-system, Roboto, Helvetica, Arial, sans-serif" font-size="26" font-weight="900" letter-spacing="1.5">10:10</text>
  </g>

  <!-- 4. Floating Leave By / Countdown Badge (Bottom Right) -->
  <g transform="translate(975, 470)" filter="url(#cardShadow)">
    <rect width="155" height="46" rx="14" fill="#0f172a" stroke="#fb7185" stroke-width="2"/>
    <circle cx="22" cy="23" r="11" fill="#fb7185" fill-opacity="0.2"/>
    <!-- Runner / Leave By icon -->
    <circle cx="22" cy="17" r="2.2" fill="#fb7185"/>
    <path d="M18 24L21 21L24 22L27 19M21 21V26L19 28M21 26L24 28" stroke="#fb7185" stroke-width="1.5" stroke-linecap="round" stroke-linejoin="round"/>
    <text x="40" y="28" fill="#fb7185" font-family="'Segoe UI', -apple-system, Roboto, Helvetica, Arial, sans-serif" font-size="12.5" font-weight="800">Leave By: 10:30</text>
  </g>

  <!-- Ambient Golden and Cyan Sparkles -->
  <g fill="#38bdf8" opacity="0.85">
    <circle cx="1130" cy="425" r="2.5"/>
    <circle cx="710" cy="225" r="2"/>
    <circle cx="1080" cy="175" r="2.5"/>
    <circle cx="860" cy="525" r="3"/>
  </g>
  <g fill="#fbbf24" opacity="0.9">
    <circle cx="1150" cy="245" r="3"/>
    <circle cx="700" cy="385" r="2.5"/>
    <circle cx="960" cy="515" r="2"/>
    <circle cx="810" cy="115" r="2.5"/>
  </g>
</svg>